<svg width="72" height="24" viewBox="0 0 72 24" fill="none" xmlns="http://www.w3.org/2000/svg">
<g style="mix-blend-mode:lighten">
<path d="M7.7195 23.384C5.37283 23.384 2.99417 23.0213 0.5835 22.296C0.690167 20.184 0.860833 18.2213 1.0955 16.408L3.5595 15.928L5.1595 18.648C6.4395 19.096 7.57017 19.32 8.5515 19.32C8.89283 19.32 9.61817 19.224 10.7275 19.032C10.7702 18.6053 10.7915 18.3173 10.7915 18.168C10.7915 17.656 10.7062 17.272 10.5355 17.016C10.3648 16.7387 9.9915 16.44 9.4155 16.12C8.8395 15.7787 7.80483 15.2773 6.3115 14.616C4.47683 13.72 3.15417 12.76 2.3435 11.736C1.53283 10.6907 1.1275 9.464 1.1275 8.056C1.1275 5.85867 1.87417 4.14133 3.3675 2.904C4.86083 1.66667 6.90883 1.048 9.5115 1.048C10.7702 1.048 12.0182 1.176 13.2555 1.432C14.5142 1.66667 15.6128 1.99733 16.5515 2.424C16.5088 3.61867 16.4128 5.10133 16.2635 6.872L16.1675 8.248L13.8315 8.6L11.3995 5.496C10.6315 5.26133 9.6715 5.144 8.5195 5.144C7.79417 5.144 7.25017 5.208 6.8875 5.336C6.78083 5.76267 6.7275 6.09333 6.7275 6.328C6.7275 6.79733 6.84483 7.21333 7.0795 7.576C7.31417 7.91733 7.73017 8.28 8.3275 8.664C8.92483 9.02667 9.81017 9.48533 10.9835 10.04C12.6902 10.8507 13.9808 11.5653 14.8555 12.184C15.7302 12.8027 16.3382 13.4533 16.6795 14.136C17.0422 14.7973 17.2235 15.608 17.2235 16.568C17.2235 18.68 16.3808 20.344 14.6955 21.56C13.0102 22.776 10.6848 23.384 7.7195 23.384ZM18.1683 20.152L19.1603 19.544L26.6483 1.4L32.0883 0.919998L38.4883 18.2C38.7016 18.7547 38.8509 19.1173 38.9363 19.288C39.0216 19.4587 39.1816 19.6933 39.4163 19.992L39.9923 20.728L39.8003 23H30.8083L30.4883 19.96L32.7603 19.384L31.7363 16.152L25.2403 16.248L24.5363 18.264C24.4723 18.456 24.4403 18.616 24.4403 18.744C24.4403 18.8933 24.4616 19.0107 24.5043 19.096C24.5683 19.16 24.6643 19.2133 24.7923 19.256L27.0003 20.184L26.6803 23H18.2963L18.1683 20.152ZM28.6323 6.392L26.5203 12.536L30.6483 12.728L28.6323 6.392ZM41.4615 19.736L43.7975 19.096V6.84C43.7975 6.28533 43.7548 5.92267 43.6695 5.752C43.5842 5.56 43.3602 5.38933 42.9975 5.24L41.3335 4.28L41.4935 1.432H51.7655L51.8935 4.696L49.5895 5.336V17.816C49.5895 18.328 49.6215 18.6587 49.6855 18.808C49.7708 18.9573 49.9735 19.1067 50.2935 19.256L51.9255 20.248L51.8295 23H41.6215L41.4615 19.736ZM53.7078 19.736L56.0438 19.096V6.84C56.0438 6.28533 56.0011 5.92267 55.9158 5.752C55.8304 5.56 55.6064 5.38933 55.2438 5.24L53.6438 4.312L53.7398 1.432H71.1158C71.2651 3.672 71.3398 5.85867 71.3398 7.992L68.9718 8.152L66.6998 5.336L61.8678 5.208V10.904L68.6838 10.296V15.224L61.8678 14.488V17.816C61.8678 18.328 61.8998 18.6587 61.9638 18.808C62.0491 18.9573 62.2518 19.1067 62.5718 19.256L64.4918 20.408L64.3958 23H53.8678L53.7078 19.736Z" fill="black"/>
</g>
</svg>
