<svg width="89" height="29" viewBox="0 0 89 29" fill="none" xmlns="http://www.w3.org/2000/svg">
<g style="mix-blend-mode:lighten">
<path d="M9.14938 28.48C6.21604 28.48 3.24271 28.0267 0.229375 27.12C0.362708 24.48 0.576042 22.0267 0.869375 19.76L3.94938 19.16L5.94938 22.56C7.54938 23.12 8.96271 23.4 10.1894 23.4C10.616 23.4 11.5227 23.28 12.9094 23.04C12.9627 22.5067 12.9894 22.1467 12.9894 21.96C12.9894 21.32 12.8827 20.84 12.6694 20.52C12.456 20.1733 11.9894 19.8 11.2694 19.4C10.5494 18.9733 9.25604 18.3467 7.38938 17.52C5.09604 16.4 3.44271 15.2 2.42938 13.92C1.41604 12.6133 0.909375 11.08 0.909375 9.32C0.909375 6.57333 1.84271 4.42666 3.70938 2.88C5.57604 1.33333 8.13604 0.559998 11.3894 0.559998C12.9627 0.559998 14.5227 0.719998 16.0694 1.04C17.6427 1.33333 19.016 1.74667 20.1894 2.28C20.136 3.77333 20.016 5.62667 19.8294 7.84L19.7094 9.56L16.7894 10L13.7494 6.12C12.7894 5.82667 11.5894 5.68 10.1494 5.68C9.24271 5.68 8.56271 5.76 8.10938 5.92C7.97604 6.45333 7.90938 6.86667 7.90938 7.16C7.90938 7.74667 8.05604 8.26667 8.34938 8.72C8.64271 9.14667 9.16271 9.6 9.90938 10.08C10.656 10.5333 11.7627 11.1067 13.2294 11.8C15.3627 12.8133 16.976 13.7067 18.0694 14.48C19.1627 15.2533 19.9227 16.0667 20.3494 16.92C20.8027 17.7467 21.0294 18.76 21.0294 19.96C21.0294 22.6 19.976 24.68 17.8694 26.2C15.7627 27.72 12.856 28.48 9.14938 28.48ZM22.2103 24.44L23.4503 23.68L32.8103 1L39.6103 0.399998L47.6103 22C47.877 22.6933 48.0636 23.1467 48.1703 23.36C48.277 23.5733 48.477 23.8667 48.7703 24.24L49.4903 25.16L49.2503 28H38.0103L37.6103 24.2L40.4503 23.48L39.1703 19.44L31.0503 19.56L30.1703 22.08C30.0903 22.32 30.0503 22.52 30.0503 22.68C30.0503 22.8667 30.077 23.0133 30.1303 23.12C30.2103 23.2 30.3303 23.2667 30.4903 23.32L33.2503 24.48L32.8503 28H22.3703L22.2103 24.44ZM35.2903 7.24L32.6503 14.92L37.8103 15.16L35.2903 7.24ZM51.3269 23.92L54.2469 23.12V7.8C54.2469 7.10667 54.1935 6.65333 54.0869 6.44C53.9802 6.2 53.7002 5.98667 53.2469 5.8L51.1669 4.6L51.3669 1.04H64.2069L64.3669 5.12L61.4869 5.92V21.52C61.4869 22.16 61.5269 22.5733 61.6069 22.76C61.7135 22.9467 61.9669 23.1333 62.3669 23.32L64.4069 24.56L64.2869 28H51.5269L51.3269 23.92ZM66.6347 23.92L69.5547 23.12V7.8C69.5547 7.10667 69.5014 6.65333 69.3947 6.44C69.288 6.2 69.008 5.98667 68.5547 5.8L66.5547 4.64L66.6747 1.04H88.3947C88.5814 3.84 88.6747 6.57333 88.6747 9.24L85.7147 9.44L82.8747 5.92L76.8347 5.76V12.88L85.3547 12.12V18.28L76.8347 17.36V21.52C76.8347 22.16 76.8747 22.5733 76.9547 22.76C77.0614 22.9467 77.3147 23.1333 77.7147 23.32L80.1147 24.76L79.9947 28H66.8347L66.6347 23.92Z" fill="white"/>
</g>
</svg>
